# WaveFront *.obj file (generated by CINEMA 4D)

v 0.00000000000000 52.57311248779297 -85.06507873535156
v 0.00000000000000 -52.57311248779297 -85.06507873535156
v 85.06507873535156 0.00000000000000 -52.57311248779297
v 85.06507873535156 0.00000000000000 52.57311248779297
v 0.00000000000000 52.57311248779297 85.06507873535156
v 0.00000000000000 -52.57311248779297 85.06507873535156
v -85.06507873535156 0.00000000000000 52.57311248779297
v -85.06507873535156 0.00000000000000 -52.57311248779297
v 52.57311248779297 85.06507873535156 0.00000000000000
v -52.57311248779297 85.06507873535156 0.00000000000000
v -52.57311248779297 -85.06507873535156 0.00000000000000
v 52.57311248779297 -85.06507873535156 0.00000000000000
# 12 vertices

vn 0.00000000000000 0.93417233228683 -0.35682207345963
vn 0.00000000000000 0.00000000000000 0.00000000000000
vn 0.57735025882721 0.57735031843185 -0.57735031843185
vn 0.93417233228683 0.35682207345963 0.00000000000000
vn 0.57735025882721 0.57735031843185 0.57735031843185
vn 0.00000000000000 0.93417233228683 0.35682207345963
vn -0.57735031843185 0.57735025882721 0.57735031843185
vn -0.93417233228683 0.35682207345963 0.00000000000000
vn -0.57735025882721 0.57735031843185 -0.57735031843185
vn 0.00000000000000 -0.93417233228683 -0.35682207345963
vn 0.57735031843185 -0.57735031843185 -0.57735025882721
vn 0.93417233228683 -0.35682207345963 0.00000000000000
vn 0.57735031843185 -0.57735031843185 0.57735025882721
vn 0.00000000000000 -0.93417233228683 0.35682207345963
vn -0.57735031843185 -0.57735025882721 0.57735031843185
vn -0.93417233228683 -0.35682207345963 0.00000000000000
vn -0.57735031843185 -0.57735031843185 -0.57735025882721
vn -0.35682207345963 0.00000000000000 -0.93417233228683
vn 0.35682207345963 0.00000000000000 -0.93417233228683
vn 0.35682207345963 0.00000000000000 0.93417233228683
vn -0.35682207345963 0.00000000000000 0.93417233228683
# 21 normals

vt 0.00000000000000 1.00000000000000 0.00000000000000
vt 1.00000000000000 1.00000000000000 0.00000000000000
vt 0.50000000000000 0.00000000000000 0.00000000000000
# 3 texture coordinates

o Sphere.1
usemtl default
f 10/1/1 9/2/1 1/3/1
f 9/1/3 3/2/3 1/3/3
f 9/1/4 4/2/4 3/3/4
f 9/1/5 5/2/5 4/3/5
f 9/1/6 10/2/6 5/3/6
f 5/1/7 10/2/7 7/3/7
f 7/1/8 10/2/8 8/3/8
f 10/1/9 1/2/9 8/3/9
f 12/1/10 11/2/10 2/3/10
f 3/1/11 12/2/11 2/3/11
f 3/1/12 4/2/12 12/3/12
f 4/1/13 6/2/13 12/3/13
f 6/1/14 11/2/14 12/3/14
f 6/1/15 7/2/15 11/3/15
f 7/1/16 8/2/16 11/3/16
f 8/1/17 2/2/17 11/3/17
f 2/1/18 8/2/18 1/3/18
f 3/1/19 2/2/19 1/3/19
f 5/1/20 6/2/20 4/3/20
f 5/1/21 7/2/21 6/3/21

