# WaveFront *.obj file (generated by CINEMA 4D)

v 85.04653167724609 -0.00000000000001 -52.58032989501953
v 0.00934172328562 -52.55587387084961 -85.06164550781250
v 0.00934172328562 52.55587387084961 -85.06164550781250
v -0.00934172328562 -52.55587387084961 -85.06164550781250
v -85.04653167724609 0.00000000000001 -52.58032989501953
v -0.00934172328562 52.55587387084961 -85.06164550781250
v -52.57099151611328 85.05230712890625 -0.01511522661895
v -0.01511522661895 52.57099151611328 -85.05230712890625
v -85.05230712890625 0.01511522661895 -52.57099151611328
v 52.57099151611328 85.05230712890625 -0.01511522661895
v 85.05230712890625 0.01511522661895 -52.57099151611328
v 0.01511522661895 52.57099151611328 -85.05230712890625
v -52.55587387084961 85.06164550781250 -0.00934172328562
v 52.55587387084961 85.06164550781250 -0.00934172328562
v -0.00000000000000 52.58032989501953 -85.04653167724609
v -85.05230712890625 -0.01511522661895 -52.57099151611328
v -0.01511522661895 -52.57099151611328 -85.05230712890625
v -52.57099151611328 -85.05230712890625 -0.01511522661895
v 85.05230712890625 -0.01511522661895 -52.57099151611328
v 52.57099151611328 -85.05230712890625 -0.01511522661895
v 0.01511522661895 -52.57099151611328 -85.05230712890625
v 52.55587387084961 -85.06164550781250 -0.00934172328562
v -52.55587387084961 -85.06164550781250 -0.00934172328562
v -0.00000000000000 -52.58032989501953 -85.04653167724609
v 85.06164550781250 -0.00934172328562 -52.55587387084961
v 85.06164550781250 -0.00934172328562 52.55587387084961
v 52.58032989501953 -85.04653167724609 -0.00000000000001
v 52.58032989501953 85.04653167724609 -0.00000000000000
v 85.06164550781250 0.00934172328562 52.55587387084961
v 85.06164550781250 0.00934172328562 -52.55587387084961
v 0.00934172328562 52.55587387084961 85.06164550781250
v 0.00934172328562 -52.55587387084961 85.06164550781250
v 85.04653167724609 -0.00000000000000 52.58032989501953
v 85.05230712890625 -0.01511522661895 52.57099151611328
v 0.01511522661895 -52.57099151611328 85.05230712890625
v 52.57099151611328 -85.05230712890625 0.01511522661895
v 52.57099151611328 85.05230712890625 0.01511522661895
v 0.01511522661895 52.57099151611328 85.05230712890625
v 85.05230712890625 0.01511522661895 52.57099151611328
v -0.00934172328562 52.55587387084961 85.06164550781250
v -85.04653167724609 -0.00000000000001 52.58032989501953
v -0.00934172328562 -52.55587387084961 85.06164550781250
v -0.01511522661895 52.57099151611328 85.05230712890625
v -52.57099151611328 85.05230712890625 0.01511522661895
v -85.05230712890625 0.01511522661895 52.57099151611328
v 52.55587387084961 85.06164550781250 0.00934172328562
v -52.55587387084961 85.06164550781250 0.00934172328562
v -0.00000000000000 52.58032989501953 85.04653167724609
v -0.01511522661895 -52.57099151611328 85.05230712890625
v -85.05230712890625 -0.01511522661895 52.57099151611328
v -52.57099151611328 -85.05230712890625 0.01511522661895
v -0.00000000000000 -52.58032989501953 85.04653167724609
v -52.55587387084961 -85.06164550781250 0.00934172328562
v 52.55587387084961 -85.06164550781250 0.00934172328562
v -85.06164550781250 -0.00934172328562 52.55587387084961
v -85.06164550781250 -0.00934172328562 -52.55587387084961
v -52.58032989501953 -85.04653167724609 -0.00000000000000
v -85.06164550781250 0.00934172328562 52.55587387084961
v -52.58032989501953 85.04653167724609 -0.00000000000001
v -85.06164550781250 0.00934172328562 -52.55587387084961
v 85.06018829345703 0.00000000000000 -52.57008743286133
v -0.00000000000000 -52.57008743286133 -85.06018829345703
v 0.00000000000000 52.57008743286133 -85.06018829345703
v -85.06018829345703 -0.00000000000000 -52.57008743286133
v -52.57008743286133 85.06018829345703 -0.00000000000000
v 52.57008743286133 85.06018829345703 -0.00000000000000
v -52.57008743286133 -85.06018829345703 -0.00000000000000
v 52.57008743286133 -85.06018829345703 -0.00000000000000
v 85.06018829345703 -0.00000000000000 52.57008743286133
v -0.00000000000000 52.57008743286133 85.06018829345703
v 0.00000000000000 -52.57008743286133 85.06018829345703
v -85.06018829345703 0.00000000000000 52.57008743286133
v 85.05273437500000 0.00645834160969 -52.57592773437500
v 85.05918884277344 0.01044981647283 -52.56547927856445
v 85.06317901611328 -0.00000000000000 -52.55902099609375
v 85.05918884277344 -0.01044981647283 -52.56547927856445
v 85.05273437500000 -0.00645834160969 -52.57592773437500
v 0.01044981647283 -52.56547927856445 -85.05918884277344
v 0.00645834160969 -52.57592773437500 -85.05273437500000
v -0.00645834160969 -52.57592773437500 -85.05273437500000
v -0.01044981647283 -52.56547927856445 -85.05918884277344
v -0.00000000000000 -52.55902099609375 -85.06317901611328
v -0.00000000000000 52.55902099609375 -85.06317901611328
v -0.01044981647283 52.56547927856445 -85.05918884277344
v -0.00645834160969 52.57592773437500 -85.05273437500000
v 0.00645834160969 52.57592773437500 -85.05273437500000
v 0.01044981647283 52.56547927856445 -85.05918884277344
v -85.05273437500000 -0.00645834160969 -52.57592773437500
v -85.05918884277344 -0.01044981647283 -52.56547927856445
v -85.06317901611328 0.00000000000000 -52.55902099609375
v -85.05918884277344 0.01044981647283 -52.56547927856445
v -85.05273437500000 0.00645834160969 -52.57592773437500
v -52.57592773437500 85.05273437500000 -0.00645834160969
v -52.57592773437500 85.05273437500000 0.00645834160969
v -52.56547927856445 85.05918884277344 0.01044981647283
v -52.55902099609375 85.06317901611328 0.00000000000000
v -52.56547927856445 85.05918884277344 -0.01044981647283
v 52.56547927856445 85.05918884277344 -0.01044981647283
v 52.55902099609375 85.06317901611328 -0.00000000000000
v 52.56547927856445 85.05918884277344 0.01044981647283
v 52.57592773437500 85.05273437500000 0.00645834160969
v 52.57592773437500 85.05273437500000 -0.00645834160969
v -52.56547927856445 -85.05918884277344 -0.01044981647283
v -52.55902099609375 -85.06317901611328 -0.00000000000000
v -52.56547927856445 -85.05918884277344 0.01044981647283
v -52.57592773437500 -85.05273437500000 0.00645834160969
v -52.57592773437500 -85.05273437500000 -0.00645834160969
v 52.57592773437500 -85.05273437500000 -0.00645834160969
v 52.57592773437500 -85.05273437500000 0.00645834160969
v 52.56547927856445 -85.05918884277344 0.01044981647283
v 52.55902099609375 -85.06317901611328 0.00000000000000
v 52.56547927856445 -85.05918884277344 -0.01044981647283
v 85.06317901611328 0.00000000000000 52.55902099609375
v 85.05918884277344 0.01044981647283 52.56547927856445
v 85.05273437500000 0.00645834160969 52.57592773437500
v 85.05273437500000 -0.00645834160969 52.57592773437500
v 85.05918884277344 -0.01044981647283 52.56547927856445
v 0.01044981647283 52.56547927856445 85.05918884277344
v 0.00645834160969 52.57592773437500 85.05273437500000
v -0.00645834160969 52.57592773437500 85.05273437500000
v -0.01044981647283 52.56547927856445 85.05918884277344
v -0.00000000000000 52.55902099609375 85.06317901611328
v -0.00000000000000 -52.55902099609375 85.06317901611328
v -0.01044981647283 -52.56547927856445 85.05918884277344
v -0.00645834160969 -52.57592773437500 85.05273437500000
v 0.00645834160969 -52.57592773437500 85.05273437500000
v 0.01044981647283 -52.56547927856445 85.05918884277344
v -85.05273437500000 0.00645834160969 52.57592773437500
v -85.05918884277344 0.01044981647283 52.56547927856445
v -85.06317901611328 -0.00000000000000 52.55902099609375
v -85.05918884277344 -0.01044981647283 52.56547927856445
v -85.05273437500000 -0.00645834160969 52.57592773437500
# 132 vertices

vn -0.10426408052444 0.94889020919800 -0.29788658022881
vn 0.10426408052444 0.94889020919800 -0.29788658022881
vn 0.00000000000000 0.88442915678024 -0.46667444705963
vn 0.00000000000000 0.00000000000000 0.00000000000000
vn 0.58643156290054 0.65097743272781 -0.48200255632401
vn 0.65100008249283 0.48201009631157 -0.58640021085739
vn 0.48204374313354 0.58637982606888 -0.65099346637726
vn 0.88438570499420 0.46675685048103 0.00003011925401
vn 0.94887208938599 0.29792761802673 0.10431139171124
vn 0.94887489080429 0.29792940616608 -0.10428106039762
vn 0.58643156290054 0.65097743272781 0.48200255632401
vn 0.48203620314598 0.58641123771667 0.65097081661224
vn 0.65099346637726 0.48204374313354 0.58637982606888
vn 0.10426408052444 0.94889020919800 0.29788661003113
vn -0.10426408052444 0.94889020919800 0.29788658022881
vn 0.00000000000000 0.88442915678024 0.46667444705963
vn -0.48204374313354 0.58637982606888 0.65099346637726
vn -0.58643156290054 0.65097743272781 0.48200255632401
vn -0.65100008249283 0.48201009631157 0.58640021085739
vn -0.94887489080429 0.29792940616608 0.10428106039762
vn -0.88438570499420 0.46675685048103 -0.00003011925401
vn -0.94887208938599 0.29792761802673 -0.10431139171124
vn -0.58643156290054 0.65097743272781 -0.48200255632401
vn -0.48204374313354 0.58637982606888 -0.65099346637726
vn -0.65100014209747 0.48201012611389 -0.58640009164810
vn 0.10426408052444 -0.94889020919800 -0.29788658022881
vn -0.10426408052444 -0.94889020919800 -0.29788658022881
vn 0.00000000000000 -0.88442915678024 -0.46667444705963
vn 0.65100014209747 -0.48201012611389 -0.58640009164810
vn 0.58643156290054 -0.65097743272781 -0.48200255632401
vn 0.48204374313354 -0.58637982606888 -0.65099346637726
vn 0.94887208938599 -0.29792761802673 -0.10431139171124
vn 0.94887489080429 -0.29792943596840 0.10428106039762
vn 0.88438570499420 -0.46675685048103 -0.00003011925401
vn 0.65099346637726 -0.48204374313354 0.58637982606888
vn 0.48203617334366 -0.58641117811203 0.65097081661224
vn 0.58643156290054 -0.65097743272781 0.48200255632401
vn 0.00000000000000 -0.88442915678024 0.46667444705963
vn -0.10426408052444 -0.94889020919800 0.29788661003113
vn 0.10426408052444 -0.94889020919800 0.29788658022881
vn -0.48204374313354 -0.58637982606888 0.65099346637726
vn -0.65100014209747 -0.48201012611389 0.58640009164810
vn -0.58643156290054 -0.65097743272781 0.48200255632401
vn -0.94887208938599 -0.29792761802673 0.10431139171124
vn -0.94887489080429 -0.29792943596840 -0.10428106039762
vn -0.88438570499420 -0.46675685048103 0.00003011925401
vn -0.65100008249283 -0.48201009631157 -0.58640021085739
vn -0.48204374313354 -0.58637982606888 -0.65099346637726
vn -0.58643156290054 -0.65097743272781 -0.48200255632401
vn -0.29792943596840 -0.10428105294704 -0.94887489080429
vn -0.46675685048103 0.00003011925401 -0.88438570499420
vn -0.29792761802673 0.10431138426065 -0.94887208938599
vn 0.46675685048103 -0.00003011925401 -0.88438570499420
vn 0.29792761802673 -0.10431138426065 -0.94887208938599
vn 0.29792940616608 0.10428105294704 -0.94887489080429
vn 0.29788661003113 0.10426408052444 0.94889020919800
vn 0.29788658022881 -0.10426408052444 0.94889020919800
vn 0.46667441725731 0.00000000000000 0.88442915678024
vn -0.29792940616608 0.10428105294704 0.94887489080429
vn -0.46675685048103 -0.00003011925401 0.88438570499420
vn -0.29792761802673 -0.10431138426065 0.94887208938599
vn 0.12219633907080 0.99250596761703 0.00000000000000
vn -0.12219633907080 0.99250596761703 0.00000000000000
vn 0.24548764526844 0.76520961523056 -0.59513866901398
vn 0.36769708991051 0.84082984924316 -0.39724552631378
vn -0.24548764526844 0.76520961523056 -0.59513866901398
vn -0.36769708991051 0.84082990884781 -0.39724549651146
vn 0.84081929922104 0.39728814363480 -0.36767521500587
vn 0.76519048213959 0.59517312049866 -0.24546369910240
vn 0.39728814363480 0.36767521500587 -0.84081929922104
vn 0.59517312049866 0.24546369910240 -0.76519048213959
vn 0.84080922603607 0.39728325605392 0.36770349740982
vn 0.76518392562866 0.59516930580139 0.24549363553524
vn 0.99250596761703 0.00000000000000 -0.12219633907080
vn 0.99250596761703 0.00000000000000 0.12219633907080
vn 0.24548764526844 0.76520961523056 0.59513866901398
vn 0.36769708991051 0.84082990884781 0.39724549651146
vn 0.59513872861862 0.24548764526844 0.76520961523056
vn 0.39724549651146 0.36769708991051 0.84082990884781
vn -0.24548764526844 0.76520961523056 0.59513866901398
vn -0.36769708991051 0.84082984924316 0.39724552631378
vn -0.84081929922104 0.39728814363480 0.36767521500587
vn -0.76519048213959 0.59517312049866 0.24546369910240
vn -0.39728814363480 0.36767521500587 0.84081929922104
vn -0.59517312049866 0.24546369910240 0.76519048213959
vn -0.84080922603607 0.39728325605392 -0.36770349740982
vn -0.76518392562866 0.59516930580139 -0.24549363553524
vn -0.99250596761703 0.00000000000000 0.12219633907080
vn -0.99250596761703 0.00000000000000 -0.12219633907080
vn -0.39728325605392 0.36770349740982 -0.84080922603607
vn -0.59516924619675 0.24549365043640 -0.76518392562866
vn -0.12219633907080 -0.99250596761703 0.00000000000000
vn 0.12219633907080 -0.99250596761703 0.00000000000000
vn -0.24548764526844 -0.76520961523056 -0.59513866901398
vn -0.36769708991051 -0.84082984924316 -0.39724552631378
vn 0.24548764526844 -0.76520961523056 -0.59513866901398
vn 0.36769708991051 -0.84082990884781 -0.39724549651146
vn 0.84080922603607 -0.39728325605392 -0.36770349740982
vn 0.76518392562866 -0.59516930580139 -0.24549363553524
vn 0.39728325605392 -0.36770349740982 -0.84080922603607
vn 0.59516924619675 -0.24549365043640 -0.76518392562866
vn 0.84081929922104 -0.39728814363480 0.36767521500587
vn 0.76519048213959 -0.59517312049866 0.24546369910240
vn 0.59513872861862 -0.24548764526844 0.76520961523056
vn 0.39724549651146 -0.36769708991051 0.84082984924316
vn 0.24548764526844 -0.76520961523056 0.59513866901398
vn 0.36769708991051 -0.84082984924316 0.39724552631378
vn -0.24548764526844 -0.76520961523056 0.59513866901398
vn -0.36769708991051 -0.84082990884781 0.39724549651146
vn -0.39728325605392 -0.36770349740982 0.84080922603607
vn -0.59516924619675 -0.24549365043640 0.76518392562866
vn -0.84080922603607 -0.39728325605392 0.36770349740982
vn -0.76518392562866 -0.59516930580139 0.24549363553524
vn -0.84081929922104 -0.39728814363480 -0.36767521500587
vn -0.76519048213959 -0.59517312049866 -0.24546369910240
vn -0.39728814363480 -0.36767521500587 -0.84081929922104
vn -0.59517312049866 -0.24546369910240 -0.76519048213959
vn 0.00000000000000 0.12219633162022 -0.99250596761703
vn 0.00000000000000 -0.12219633162022 -0.99250596761703
vn 0.00000000000000 0.12219633162022 0.99250596761703
vn 0.00000000000000 -0.12219633162022 0.99250596761703
vn 0.85071867704391 0.00000000000000 -0.52562129497528
vn 0.00000000000000 -0.52562123537064 -0.85071873664856
vn 0.00000000000000 0.52562123537064 -0.85071873664856
vn -0.85071867704391 0.00000000000000 -0.52562129497528
vn -0.52562123537064 0.85071873664856 0.00000000000000
vn 0.52562129497528 0.85071867704391 0.00000000000000
vn -0.52562129497528 -0.85071867704391 0.00000000000000
vn 0.52562123537064 -0.85071873664856 0.00000000000000
vn 0.85071867704391 0.00000000000000 0.52562129497528
vn 0.00000000000000 0.52562123537064 0.85071873664856
vn 0.00000000000000 -0.52562123537064 0.85071873664856
vn -0.85071867704391 0.00000000000000 0.52562129497528
# 133 normals

vt 0.00016472756397 0.99989020824432 0.00000000000000
vt 0.99983525276184 0.99989020824432 0.00000000000000
vt 0.50000000000000 0.00021970272064 0.00000000000000
vt 0.00016473740106 1.00000000000000 0.00000000000000
vt 0.99983525276184 1.00000000000000 0.00000000000000
vt 0.25000000000000 0.50010985136032 0.00000000000000
vt 0.00008236378198 0.99994510412216 0.00000000000000
vt 0.25008237361908 0.50005495548248 0.00000000000000
vt 1.24991762638092 0.50005495548248 0.00000000000000
vt 0.74991762638092 1.49983525276184 0.00000000000000
vt 0.25008237361908 0.50016474723816 0.00000000000000
vt 0.00000000000000 1.00000000000000 0.00000000000000
vt 1.00000000000000 1.00000000000000 0.00000000000000
vt 1.00000000000000 0.00000000000000 0.00000000000000
vt 0.00000000000000 0.00000000000000 0.00000000000000
vt 0.00016474723816 1.00010979175568 0.00000000000000
vt 0.99983525276184 1.00010979175568 0.00000000000000
vt 1.50000000000000 0.00021970272064 0.00000000000000
vt 0.50000000000000 1.99978029727936 0.00000000000000
vt -0.50000000000000 1.99978029727936 0.00000000000000
# 20 texture coordinates

o Platonic
usemtl default
f 13/1/1 14/2/2 15/3/3
f 10/1/5 11/2/6 12/3/7
f 28/1/8 29/2/9 30/3/10
f 37/1/11 38/2/12 39/3/13
f 46/1/14 47/2/15 48/3/16
f 43/1/17 44/2/18 45/3/19
f 58/1/20 59/2/21 60/3/22
f 7/1/23 8/2/24 9/3/25
f 22/1/26 23/2/27 24/3/28
f 19/1/29 20/2/30 21/3/31
f 25/1/32 26/2/33 27/3/34
f 34/1/35 35/2/36 36/3/37
f 52/1/38 53/2/39 54/3/40
f 49/1/41 50/2/42 51/3/43
f 55/1/44 56/2/45 57/3/46
f 16/1/47 17/2/48 18/3/49
f 4/1/50 5/2/51 6/3/52
f 1/1/53 2/2/54 3/3/55
f 31/1/56 32/2/57 33/3/58
f 40/1/59 41/2/60 42/3/61
f 46/1/14 99/4/62 96/5/63 47/2/15
f 12/3/7 86/6/64 98/7/65 10/1/5
f 15/3/3 85/6/66 97/7/67 13/1/1
f 30/3/10 74/6/68 102/7/69 28/1/8
f 3/3/55 87/6/70 73/7/71 1/1/53
f 39/3/13 114/6/72 101/7/73 37/1/11
f 25/1/32 75/8/74 113/2/75 26/2/33
f 48/3/16 119/6/76 100/7/77 46/1/14
f 33/3/58 115/6/78 118/7/79 31/1/56
f 43/1/17 120/8/80 95/2/81 44/2/18
f 58/1/20 129/8/82 94/2/83 59/2/21
f 40/1/59 121/1/84 128/9/85 41/2/60
f 9/3/25 91/6/86 93/7/87 7/1/23
f 55/1/44 130/1/88 90/9/89 56/2/45
f 8/2/24 84/10/90 92/11/91 9/3/25
f 53/2/39 104/2/92 111/8/93 54/3/40
f 17/2/48 80/10/94 103/11/95 18/3/49
f 24/3/28 79/6/96 112/7/97 22/1/26
f 19/1/29 76/1/98 108/9/99 20/2/30
f 21/3/31 78/6/100 77/7/101 19/1/29
f 26/2/33 117/5/102 109/12/103 27/3/34
f 34/1/35 116/8/104 127/2/105 35/2/36
f 35/2/36 126/5/106 110/12/107 36/3/37
f 52/1/38 125/1/108 105/9/109 53/2/39
f 49/1/41 124/8/110 132/2/111 50/2/42
f 50/2/42 131/5/112 106/12/113 51/3/43
f 56/2/45 89/5/114 107/12/115 57/3/46
f 4/1/50 81/4/116 88/5/117 5/2/51
f 6/3/52 83/6/118 82/7/119 4/1/50
f 31/1/56 122/1/120 123/9/121 32/2/57
f 61/12/122 73/13/71 11/14/6 74/15/68
f 62/12/123 78/13/100 21/14/31 79/15/96
f 63/12/124 83/13/118 6/14/52 84/15/90
f 64/12/125 88/13/117 16/14/47 89/15/114
f 65/12/126 93/13/87 59/14/21 94/15/83
f 66/12/127 98/13/65 14/14/2 99/15/62
f 67/12/128 103/13/95 23/14/27 104/15/92
f 68/12/129 108/13/99 27/14/34 109/15/103
f 69/12/130 113/13/75 29/14/9 114/15/72
f 70/12/131 118/13/79 38/14/12 119/15/76
f 71/12/132 123/13/121 42/14/61 124/15/110
f 72/12/133 128/13/85 45/14/19 129/15/82
f 61/12/122 74/13/68 30/14/10 75/15/74
f 61/12/122 75/13/74 25/14/32 76/15/98
f 61/12/122 76/13/98 19/14/29 77/15/101
f 61/12/122 77/13/101 1/14/53 73/15/71
f 62/12/123 79/13/96 24/14/28 80/15/94
f 62/12/123 80/13/94 17/14/48 81/15/116
f 62/12/123 81/13/116 4/14/50 82/15/119
f 62/12/123 82/13/119 2/14/54 78/15/100
f 63/12/124 84/13/90 8/14/24 85/15/66
f 63/12/124 85/13/66 15/14/3 86/15/64
f 63/12/124 86/13/64 12/14/7 87/15/70
f 63/12/124 87/13/70 3/14/55 83/15/118
f 64/12/125 89/13/114 56/14/45 90/15/89
f 64/12/125 90/13/89 60/14/22 91/15/86
f 64/12/125 91/13/86 9/14/25 92/15/91
f 64/12/125 92/13/91 5/14/51 88/15/117
f 65/12/126 94/13/83 44/14/18 95/15/81
f 65/12/126 95/13/81 47/14/15 96/15/63
f 65/12/126 96/13/63 13/14/1 97/15/67
f 65/12/126 97/13/67 7/14/23 93/15/87
f 66/12/127 99/13/62 46/14/14 100/15/77
f 66/12/127 100/13/77 37/14/11 101/15/73
f 66/12/127 101/13/73 28/14/8 102/15/69
f 66/12/127 102/13/69 10/14/5 98/15/65
f 67/12/128 104/13/92 53/14/39 105/15/109
f 67/12/128 105/13/109 51/14/43 106/15/113
f 67/12/128 106/13/113 57/14/46 107/15/115
f 67/12/128 107/13/115 18/14/49 103/15/95
f 68/12/129 109/13/103 36/14/37 110/15/107
f 68/12/129 110/13/107 54/14/40 111/15/93
f 68/12/129 111/13/93 22/14/26 112/15/97
f 68/12/129 112/13/97 20/14/30 108/15/99
f 69/12/130 114/13/72 39/14/13 115/15/78
f 69/12/130 115/13/78 33/14/58 116/15/104
f 69/12/130 116/13/104 34/14/35 117/15/102
f 69/12/130 117/13/102 26/14/33 113/15/75
f 70/12/131 119/13/76 48/14/16 120/15/80
f 70/12/131 120/13/80 43/14/17 121/15/84
f 70/12/131 121/13/84 40/14/59 122/15/120
f 70/12/131 122/13/120 31/14/56 118/15/79
f 71/12/132 124/13/110 49/14/41 125/15/108
f 71/12/132 125/13/108 52/14/38 126/15/106
f 71/12/132 126/13/106 35/14/36 127/15/105
f 71/12/132 127/13/105 32/14/57 123/15/121
f 72/12/133 129/13/82 58/14/20 130/15/88
f 72/12/133 130/13/88 55/14/44 131/15/112
f 72/12/133 131/13/112 50/14/42 132/15/111
f 72/12/133 132/13/111 41/14/60 128/15/85
f 99/4/62 14/16/2 13/17/1 96/5/63
f 86/6/64 15/12/3 14/12/2 98/7/65
f 85/6/66 8/12/24 7/12/23 97/7/67
f 74/6/68 11/12/6 10/12/5 102/7/69
f 87/6/70 12/12/7 11/12/6 73/7/71
f 114/6/72 29/12/9 28/12/8 101/7/73
f 75/8/74 30/3/10 29/2/9 113/2/75
f 119/6/76 38/12/12 37/12/11 100/7/77
f 115/6/78 39/12/13 38/12/12 118/7/79
f 120/8/80 48/3/16 47/2/15 95/2/81
f 129/8/82 45/3/19 44/2/18 94/2/83
f 121/1/84 43/1/17 45/18/19 128/9/85
f 91/6/86 60/12/22 59/12/21 93/7/87
f 130/1/88 58/1/20 60/18/22 90/9/89
f 84/10/90 6/19/52 5/16/51 92/11/91
f 104/2/92 23/2/27 22/1/26 111/8/93
f 80/10/94 24/19/28 23/16/27 103/11/95
f 79/6/96 21/12/31 20/12/30 112/7/97
f 76/1/98 25/1/32 27/18/34 108/9/99
f 78/6/100 2/12/54 1/12/53 77/7/101
f 117/5/102 34/17/35 36/20/37 109/12/103
f 116/8/104 33/3/58 32/2/57 127/2/105
f 126/5/106 52/17/38 54/20/40 110/12/107
f 125/1/108 49/1/41 51/18/43 105/9/109
f 124/8/110 42/3/61 41/2/60 132/2/111
f 131/5/112 55/17/44 57/20/46 106/12/113
f 89/5/114 16/17/47 18/20/49 107/12/115
f 81/4/116 17/16/48 16/17/47 88/5/117
f 83/6/118 3/12/55 2/12/54 82/7/119
f 122/1/120 40/1/59 42/18/61 123/9/121

